<svg xmlns="http://www.w3.org/2000/svg" width="41.176" height="14" viewBox="0 0 41.176 14">
  <g>
    <path fill="rgb(0,0,0)" fill-rule="evenodd" d="M0 0h3.2448883c3.35678101 0 5.59461976 1.75 5.59461976 5.83337402 0 4.08325196-2.23783875 5.94995118-5.48272705 5.94995118H0V0zm9.51086426 0h2.6854248l.3356781 6.30004883V9.2166748h.1118927c.1118927-1.05004882.3356781-1.98339843.5594635-2.91662597l.7832489-3.26672363h1.6783905l.78324891 3.26672363c.2237854.93322754.4475708 1.86657715.5594635 2.91662597h.1118927c0-1.05004882 0-1.98339843.1118927-2.91662597L17.56713867 0h2.57351685l-1.45458985 11.7833252h-2.7973175l-.7832489-3.61669922c-.1118927-.69995118-.3356781-1.51660157-.3356781-2.2166748-.1118927.70007323-.2237854 1.51672362-.3356781 2.2166748l-.6713562 3.61669922h-2.6854248L9.51086425 0zm14.43415832 0h-2.7973175l.2237854 11.7833252h2.1259613V8.16662598c0-1.39990235-.2237854-4.19995118-.3356781-5.48327637l.7832489 3.15002441.8951416 2.79992676h1.2308197l.8951416-2.79992676 1.00703431-3.15002441c-.1118927 1.2833252-.3356781 4.19995117-.3356781 5.48327637v3.61669922h2.237854V0h-2.7973175l-1.118927 4.19995117-.4475708 1.63342285h-.1118927l-.3356781-1.63342285L23.94502258 0zM3.13299561 9.6833496c1.7902832 0 3.0211029-1.05004882 3.0211029-3.85009765 0-2.79992675-1.2308197-3.73327636-3.0211029-3.73327636h-.4475708V9.6833496h.4475708z"/>
    <path fill="rgb(98,0,238)" fill-rule="evenodd" d="M33.12021231 14h8.05626786v-2.21666776h-8.05626786V14z"/>
  </g>
</svg>
